<svg width="213" height="58" viewBox="0 0 213 58" fill="none" xmlns="http://www.w3.org/2000/svg">
<path d="M6.4 7.5H4.15C2.06667 7.5 1.025 8.45833 1.025 10.375H0.525V8.5C0.525 7.16667 1.23333 6.5 2.65 6.5H14.275V7.5H8.65V23H6.4V7.5ZM17.2252 9.5C17.2252 8.65 17.1085 8.025 16.8752 7.625C16.6419 7.20833 16.1752 7 15.4752 7H14.9752V6.5H17.2252C17.8419 6.5 18.3002 6.58333 18.6002 6.75C18.9169 6.9 19.1419 7.18333 19.2752 7.6C19.4085 8.01667 19.4752 8.65 19.4752 9.5V14H26.9752V6.5H29.2252V20C29.2252 20.85 29.3419 21.4833 29.5752 21.9C29.8085 22.3 30.2752 22.5 30.9752 22.5H31.4752V23H29.2252C28.6085 23 28.1419 22.925 27.8252 22.775C27.5252 22.6083 27.3085 22.3167 27.1752 21.9C27.0419 21.4833 26.9752 20.85 26.9752 20V15H19.4752V23H17.2252V9.5ZM34.5592 9.5C34.5592 8.65 34.4425 8.025 34.2092 7.625C33.9758 7.20833 33.5092 7 32.8092 7H32.3092V6.5H42.9592C44.3758 6.5 45.0842 7.16667 45.0842 8.5V10.375H44.5842C44.5842 8.45833 43.5425 7.5 41.4592 7.5H36.8092V14H43.5592V15H36.8092V22H41.1842C42.3342 22 43.2342 21.7917 43.8842 21.375C44.5342 20.9583 45.0508 20.25 45.4342 19.25L45.9342 19.375L45.0592 21.75C44.7592 22.5833 44.1342 23 43.1842 23H34.5592V9.5ZM61.8053 23.5C60.2553 23.5 58.8886 23.1167 57.7053 22.35C56.5386 21.5833 55.6386 20.5333 55.0053 19.2C54.3719 17.8667 54.0553 16.3833 54.0553 14.75C54.0553 13.1167 54.3719 11.6333 55.0053 10.3C55.6386 8.96667 56.5386 7.91667 57.7053 7.15C58.8886 6.38333 60.2553 6 61.8053 6C63.3553 6 64.7136 6.38333 65.8803 7.15C67.0636 7.91667 67.9719 8.96667 68.6053 10.3C69.2386 11.6333 69.5553 13.1167 69.5553 14.75C69.5553 16.3833 69.2386 17.8667 68.6053 19.2C67.9719 20.5333 67.0636 21.5833 65.8803 22.35C64.7136 23.1167 63.3553 23.5 61.8053 23.5ZM61.8053 22.5C62.8886 22.5 63.8219 22.1833 64.6053 21.55C65.4053 20.9167 66.0136 20.025 66.4303 18.875C66.8469 17.7083 67.0553 16.3333 67.0553 14.75C67.0553 13.1667 66.8469 11.8 66.4303 10.65C66.0136 9.48333 65.4053 8.58333 64.6053 7.95C63.8219 7.31667 62.8886 7 61.8053 7C60.7219 7 59.7803 7.31667 58.9803 7.95C58.1969 8.58333 57.5969 9.48333 57.1803 10.65C56.7636 11.8 56.5553 13.1667 56.5553 14.75C56.5553 16.3333 56.7636 17.7083 57.1803 18.875C57.5969 20.025 58.1969 20.9167 58.9803 21.55C59.7803 22.1833 60.7219 22.5 61.8053 22.5ZM72.3131 9.425C71.8964 8.45833 71.5048 7.8 71.1381 7.45C70.7714 7.08333 70.2464 6.86667 69.5631 6.8V6.3C69.6464 6.3 69.7714 6.29167 69.9381 6.275C70.0881 6.25833 70.2464 6.25 70.4131 6.25C71.2464 6.25 72.0464 6.46667 72.8131 6.9C73.5798 7.31667 74.2298 8.15833 74.7631 9.425L79.0381 19.5L80.5131 16.075C81.2131 14.4583 82.5548 11.2667 84.5381 6.5H85.7381L78.5631 23.25H78.1131L72.3131 9.425ZM99.5793 23.425C98.6626 23.425 97.7626 23.3 96.8793 23.05C95.996 22.8 95.271 22.4417 94.7043 21.975C94.1543 21.5083 93.8793 20.975 93.8793 20.375V17.7H94.3293C94.6126 19.3667 95.1626 20.575 95.9793 21.325C96.796 22.0583 97.921 22.425 99.3543 22.425C100.254 22.425 101.021 22.2 101.654 21.75C102.304 21.3 102.629 20.675 102.629 19.875C102.629 19.175 102.413 18.5667 101.979 18.05C101.546 17.5333 100.846 16.9917 99.8793 16.425L96.8043 14.6C95.7376 13.9667 94.9793 13.325 94.5293 12.675C94.096 12.025 93.8793 11.2333 93.8793 10.3C93.8793 9.01667 94.321 7.99167 95.2043 7.225C96.1043 6.44167 97.2793 6.05 98.7293 6.05C99.5793 6.05 100.421 6.175 101.254 6.425C102.088 6.65833 102.771 7.00833 103.304 7.475C103.854 7.925 104.129 8.45 104.129 9.05V11.725H103.679C103.396 10.0583 102.854 8.86667 102.054 8.15C101.271 7.41667 100.163 7.05 98.7293 7.05C97.9626 7.05 97.2876 7.28333 96.7043 7.75C96.121 8.21667 95.8293 8.825 95.8293 9.575C95.8293 10.2583 96.0376 10.825 96.4543 11.275C96.8876 11.725 97.6043 12.25 98.6043 12.85L101.679 14.675C102.813 15.3583 103.613 15.9917 104.079 16.575C104.546 17.1583 104.779 17.9 104.779 18.8C104.779 20.2 104.313 21.325 103.379 22.175C102.446 23.0083 101.179 23.425 99.5793 23.425ZM112.259 7.5H110.009C107.926 7.5 106.884 8.45833 106.884 10.375H106.384V8.5C106.384 7.16667 107.093 6.5 108.509 6.5H120.134V7.5H114.509V23H112.259V7.5ZM129.285 23.25C127.685 23.25 126.418 22.9833 125.485 22.45C124.551 21.9 123.885 21.0917 123.485 20.025C123.101 18.9583 122.91 17.575 122.91 15.875V9.5C122.91 8.65 122.793 8.025 122.56 7.625C122.326 7.20833 121.86 7 121.16 7H120.66V6.5H122.91C123.526 6.5 123.985 6.58333 124.285 6.75C124.601 6.9 124.826 7.18333 124.96 7.6C125.093 8.01667 125.16 8.65 125.16 9.5V16.625C125.16 18.475 125.501 19.875 126.185 20.825C126.868 21.775 128.001 22.25 129.585 22.25C130.851 22.25 131.851 22.025 132.585 21.575C133.335 21.125 133.868 20.4417 134.185 19.525C134.501 18.6083 134.66 17.3917 134.66 15.875V6.5H135.66V15.875C135.66 17.6083 135.476 19.0083 135.11 20.075C134.743 21.125 134.093 21.9167 133.16 22.45C132.243 22.9833 130.951 23.25 129.285 23.25ZM140.248 9.5C140.248 8.65 140.131 8.025 139.898 7.625C139.664 7.20833 139.198 7 138.498 7H137.998V6.5H144.548C147.781 6.5 150.223 7.21667 151.873 8.65C153.539 10.0833 154.373 12.0833 154.373 14.65C154.373 16.3 154.023 17.7583 153.323 19.025C152.623 20.275 151.581 21.25 150.198 21.95C148.831 22.65 147.164 23 145.198 23H140.248V9.5ZM145.123 22.125C146.356 22.125 147.464 21.825 148.448 21.225C149.448 20.6083 150.231 19.75 150.798 18.65C151.364 17.5333 151.648 16.2333 151.648 14.75C151.648 13.3 151.364 12.0167 150.798 10.9C150.248 9.78333 149.473 8.91667 148.473 8.3C147.473 7.68333 146.339 7.375 145.073 7.375C144.273 7.375 143.439 7.50833 142.573 7.775V21.8C143.506 22.0167 144.356 22.125 145.123 22.125ZM159.944 23C159.327 23 158.86 22.925 158.544 22.775C158.244 22.6083 158.027 22.3167 157.894 21.9C157.76 21.4833 157.694 20.85 157.694 20V6.5H159.944V20C159.944 20.85 160.06 21.4833 160.294 21.9C160.527 22.3 160.994 22.5 161.694 22.5H162.194V23H159.944ZM171.327 23.5C169.777 23.5 168.41 23.1167 167.227 22.35C166.06 21.5833 165.16 20.5333 164.527 19.2C163.893 17.8667 163.577 16.3833 163.577 14.75C163.577 13.1167 163.893 11.6333 164.527 10.3C165.16 8.96667 166.06 7.91667 167.227 7.15C168.41 6.38333 169.777 6 171.327 6C172.877 6 174.235 6.38333 175.402 7.15C176.585 7.91667 177.493 8.96667 178.127 10.3C178.76 11.6333 179.077 13.1167 179.077 14.75C179.077 16.3833 178.76 17.8667 178.127 19.2C177.493 20.5333 176.585 21.5833 175.402 22.35C174.235 23.1167 172.877 23.5 171.327 23.5ZM171.327 22.5C172.41 22.5 173.343 22.1833 174.127 21.55C174.927 20.9167 175.535 20.025 175.952 18.875C176.368 17.7083 176.577 16.3333 176.577 14.75C176.577 13.1667 176.368 11.8 175.952 10.65C175.535 9.48333 174.927 8.58333 174.127 7.95C173.343 7.31667 172.41 7 171.327 7C170.243 7 169.302 7.31667 168.502 7.95C167.718 8.58333 167.118 9.48333 166.702 10.65C166.285 11.8 166.077 13.1667 166.077 14.75C166.077 16.3333 166.285 17.7083 166.702 18.875C167.118 20.025 167.718 20.9167 168.502 21.55C169.302 22.1833 170.243 22.5 171.327 22.5Z" fill="#0F1829"/>
</svg>
